<svg xmlns="http://www.w3.org/2000/svg" width="408" height="408"><rect width="100%" height="100%" x="0" y="0" fill="#3F904D"/><circle cx="34" cy="34" r="28.333" fill="none" stroke="#ddd" style="opacity:.14133333333333334;stroke-width:11.333333333333332px"/><circle cx="34" cy="34" r="14.167" fill="#ddd" fill-opacity=".055"/><circle cx="102" cy="34" r="28.333" fill="none" stroke="#ddd" style="opacity:.08933333333333333;stroke-width:11.333333333333332px"/><circle cx="102" cy="34" r="14.167" fill="#222" fill-opacity=".081"/><circle cx="170" cy="34" r="28.333" fill="none" stroke="#222" style="opacity:.13266666666666665;stroke-width:11.333333333333332px"/><circle cx="170" cy="34" r="14.167" fill="#222" fill-opacity=".115"/><circle cx="238" cy="34" r="28.333" fill="none" stroke="#222" style="opacity:.15;stroke-width:11.333333333333332px"/><circle cx="238" cy="34" r="14.167" fill="#ddd" fill-opacity=".124"/><circle cx="306" cy="34" r="28.333" fill="none" stroke="#222" style="opacity:.098;stroke-width:11.333333333333332px"/><circle cx="306" cy="34" r="14.167" fill="#ddd" fill-opacity=".055"/><circle cx="374" cy="34" r="28.333" fill="none" stroke="#ddd" style="opacity:.07200000000000001;stroke-width:11.333333333333332px"/><circle cx="374" cy="34" r="14.167" fill="#ddd" fill-opacity=".072"/><circle cx="34" cy="102" r="28.333" fill="none" stroke="#ddd" style="opacity:.07200000000000001;stroke-width:11.333333333333332px"/><circle cx="34" cy="102" r="14.167" fill="#222" fill-opacity=".063"/><circle cx="102" cy="102" r="28.333" fill="none" stroke="#222" style="opacity:.08066666666666666;stroke-width:11.333333333333332px"/><circle cx="102" cy="102" r="14.167" fill="#ddd" fill-opacity=".055"/><circle cx="170" cy="102" r="28.333" fill="none" stroke="#ddd" style="opacity:.07200000000000001;stroke-width:11.333333333333332px"/><circle cx="170" cy="102" r="14.167" fill="#222" fill-opacity=".115"/><circle cx="238" cy="102" r="28.333" fill="none" stroke="#222" style="opacity:.08066666666666666;stroke-width:11.333333333333332px"/><circle cx="238" cy="102" r="14.167" fill="#ddd" fill-opacity=".055"/><circle cx="306" cy="102" r="28.333" fill="none" stroke="#222" style="opacity:.15;stroke-width:11.333333333333332px"/><circle cx="306" cy="102" r="14.167" fill="#222" fill-opacity=".115"/><circle cx="374" cy="102" r="28.333" fill="none" stroke="#222" style="opacity:.11533333333333334;stroke-width:11.333333333333332px"/><circle cx="374" cy="102" r="14.167" fill="#ddd" fill-opacity=".141"/><circle cx="34" cy="170" r="28.333" fill="none" stroke="#222" style="opacity:.13266666666666665;stroke-width:11.333333333333332px"/><circle cx="34" cy="170" r="14.167" fill="#222" fill-opacity=".115"/><circle cx="102" cy="170" r="28.333" fill="none" stroke="#222" style="opacity:.046;stroke-width:11.333333333333332px"/><circle cx="102" cy="170" r="14.167" fill="#222" fill-opacity=".098"/><circle cx="170" cy="170" r="28.333" fill="none" stroke="#ddd" style="opacity:.10666666666666667;stroke-width:11.333333333333332px"/><circle cx="170" cy="170" r="14.167" fill="#222" fill-opacity=".098"/><circle cx="238" cy="170" r="28.333" fill="none" stroke="#222" style="opacity:.046;stroke-width:11.333333333333332px"/><circle cx="238" cy="170" r="14.167" fill="#222" fill-opacity=".081"/><circle cx="306" cy="170" r="28.333" fill="none" stroke="#ddd" style="opacity:.08933333333333333;stroke-width:11.333333333333332px"/><circle cx="306" cy="170" r="14.167" fill="#ddd" fill-opacity=".072"/><circle cx="374" cy="170" r="28.333" fill="none" stroke="#222" style="opacity:.046;stroke-width:11.333333333333332px"/><circle cx="374" cy="170" r="14.167" fill="#222" fill-opacity=".029"/><circle cx="34" cy="238" r="28.333" fill="none" stroke="#ddd" style="opacity:.12400000000000001;stroke-width:11.333333333333332px"/><circle cx="34" cy="238" r="14.167" fill="#ddd" fill-opacity=".037"/><circle cx="102" cy="238" r="28.333" fill="none" stroke="#222" style="opacity:.06333333333333334;stroke-width:11.333333333333332px"/><circle cx="102" cy="238" r="14.167" fill="#222" fill-opacity=".046"/><circle cx="170" cy="238" r="28.333" fill="none" stroke="#222" style="opacity:.046;stroke-width:11.333333333333332px"/><circle cx="170" cy="238" r="14.167" fill="#222" fill-opacity=".063"/><circle cx="238" cy="238" r="28.333" fill="none" stroke="#ddd" style="opacity:.03733333333333333;stroke-width:11.333333333333332px"/><circle cx="238" cy="238" r="14.167" fill="#ddd" fill-opacity=".124"/><circle cx="306" cy="238" r="28.333" fill="none" stroke="#222" style="opacity:.028666666666666667;stroke-width:11.333333333333332px"/><circle cx="306" cy="238" r="14.167" fill="#222" fill-opacity=".046"/><circle cx="374" cy="238" r="28.333" fill="none" stroke="#ddd" style="opacity:.07200000000000001;stroke-width:11.333333333333332px"/><circle cx="374" cy="238" r="14.167" fill="#ddd" fill-opacity=".089"/><circle cx="34" cy="306" r="28.333" fill="none" stroke="#222" style="opacity:.08066666666666666;stroke-width:11.333333333333332px"/><circle cx="34" cy="306" r="14.167" fill="#222" fill-opacity=".046"/><circle cx="102" cy="306" r="28.333" fill="none" stroke="#222" style="opacity:.098;stroke-width:11.333333333333332px"/><circle cx="102" cy="306" r="14.167" fill="#ddd" fill-opacity=".107"/><circle cx="170" cy="306" r="28.333" fill="none" stroke="#222" style="opacity:.098;stroke-width:11.333333333333332px"/><circle cx="170" cy="306" r="14.167" fill="#222" fill-opacity=".046"/><circle cx="238" cy="306" r="28.333" fill="none" stroke="#222" style="opacity:.11533333333333334;stroke-width:11.333333333333332px"/><circle cx="238" cy="306" r="14.167" fill="#222" fill-opacity=".133"/><circle cx="306" cy="306" r="28.333" fill="none" stroke="#ddd" style="opacity:.14133333333333334;stroke-width:11.333333333333332px"/><circle cx="306" cy="306" r="14.167" fill="#222" fill-opacity=".115"/><circle cx="374" cy="306" r="28.333" fill="none" stroke="#222" style="opacity:.11533333333333334;stroke-width:11.333333333333332px"/><circle cx="374" cy="306" r="14.167" fill="#222" fill-opacity=".15"/><circle cx="34" cy="374" r="28.333" fill="none" stroke="#ddd" style="opacity:.05466666666666667;stroke-width:11.333333333333332px"/><circle cx="34" cy="374" r="14.167" fill="#222" fill-opacity=".081"/><circle cx="102" cy="374" r="28.333" fill="none" stroke="#222" style="opacity:.11533333333333334;stroke-width:11.333333333333332px"/><circle cx="102" cy="374" r="14.167" fill="#ddd" fill-opacity=".072"/><circle cx="170" cy="374" r="28.333" fill="none" stroke="#ddd" style="opacity:.05466666666666667;stroke-width:11.333333333333332px"/><circle cx="170" cy="374" r="14.167" fill="#222" fill-opacity=".081"/><circle cx="238" cy="374" r="28.333" fill="none" stroke="#222" style="opacity:.06333333333333334;stroke-width:11.333333333333332px"/><circle cx="238" cy="374" r="14.167" fill="#ddd" fill-opacity=".072"/><circle cx="306" cy="374" r="28.333" fill="none" stroke="#ddd" style="opacity:.07200000000000001;stroke-width:11.333333333333332px"/><circle cx="306" cy="374" r="14.167" fill="#ddd" fill-opacity=".072"/><circle cx="374" cy="374" r="28.333" fill="none" stroke="#ddd" style="opacity:.05466666666666667;stroke-width:11.333333333333332px"/><circle cx="374" cy="374" r="14.167" fill="#222" fill-opacity=".098"/></svg>