<svg xmlns="http://www.w3.org/2000/svg" width="284" height="94"><rect width="100%" height="100%" x="0" y="0" fill="#0F0"/><polyline fill="#ddd" fill-opacity=".141" stroke="#000" stroke-opacity=".02" points="23.667 0 47.333 15.667 23.667 31.333 0 15.667" transform="translate(-23.666666666666668, -15.666666666666666)"/><polyline fill="#ddd" fill-opacity=".141" stroke="#000" stroke-opacity=".02" points="23.667 0 47.333 15.667 23.667 31.333 0 15.667" transform="translate(260.3333333333333, -15.666666666666666)"/><polyline fill="#ddd" fill-opacity=".141" stroke="#000" stroke-opacity=".02" points="23.667 0 47.333 15.667 23.667 31.333 0 15.667" transform="translate(-23.666666666666668, 78.33333333333333)"/><polyline fill="#ddd" fill-opacity=".141" stroke="#000" stroke-opacity=".02" points="23.667 0 47.333 15.667 23.667 31.333 0 15.667" transform="translate(260.3333333333333, 78.33333333333333)"/><polyline fill="#ddd" fill-opacity=".089" stroke="#000" stroke-opacity=".02" points="23.667 0 47.333 15.667 23.667 31.333 0 15.667" transform="translate(23.666666666666668, -15.666666666666666)"/><polyline fill="#ddd" fill-opacity=".089" stroke="#000" stroke-opacity=".02" points="23.667 0 47.333 15.667 23.667 31.333 0 15.667" transform="translate(23.666666666666668, 78.33333333333333)"/><polyline fill="#222" fill-opacity=".133" stroke="#000" stroke-opacity=".02" points="23.667 0 47.333 15.667 23.667 31.333 0 15.667" transform="translate(71.0, -15.666666666666666)"/><polyline fill="#222" fill-opacity=".133" stroke="#000" stroke-opacity=".02" points="23.667 0 47.333 15.667 23.667 31.333 0 15.667" transform="translate(71.0, 78.33333333333333)"/><polyline fill="#222" fill-opacity=".15" stroke="#000" stroke-opacity=".02" points="23.667 0 47.333 15.667 23.667 31.333 0 15.667" transform="translate(118.33333333333333, -15.666666666666666)"/><polyline fill="#222" fill-opacity=".15" stroke="#000" stroke-opacity=".02" points="23.667 0 47.333 15.667 23.667 31.333 0 15.667" transform="translate(118.33333333333333, 78.33333333333333)"/><polyline fill="#222" fill-opacity=".098" stroke="#000" stroke-opacity=".02" points="23.667 0 47.333 15.667 23.667 31.333 0 15.667" transform="translate(165.66666666666669, -15.666666666666666)"/><polyline fill="#222" fill-opacity=".098" stroke="#000" stroke-opacity=".02" points="23.667 0 47.333 15.667 23.667 31.333 0 15.667" transform="translate(165.66666666666669, 78.33333333333333)"/><polyline fill="#ddd" fill-opacity=".072" stroke="#000" stroke-opacity=".02" points="23.667 0 47.333 15.667 23.667 31.333 0 15.667" transform="translate(213.00000000000003, -15.666666666666666)"/><polyline fill="#ddd" fill-opacity=".072" stroke="#000" stroke-opacity=".02" points="23.667 0 47.333 15.667 23.667 31.333 0 15.667" transform="translate(213.00000000000003, 78.33333333333333)"/><polyline fill="#ddd" fill-opacity=".072" stroke="#000" stroke-opacity=".02" points="23.667 0 47.333 15.667 23.667 31.333 0 15.667" transform="translate(0.0, 0.0)"/><polyline fill="#ddd" fill-opacity=".072" stroke="#000" stroke-opacity=".02" points="23.667 0 47.333 15.667 23.667 31.333 0 15.667" transform="translate(284.0, 0.0)"/><polyline fill="#222" fill-opacity=".081" stroke="#000" stroke-opacity=".02" points="23.667 0 47.333 15.667 23.667 31.333 0 15.667" transform="translate(47.333333333333336, 0.0)"/><polyline fill="#ddd" fill-opacity=".072" stroke="#000" stroke-opacity=".02" points="23.667 0 47.333 15.667 23.667 31.333 0 15.667" transform="translate(94.66666666666667, 0.0)"/><polyline fill="#222" fill-opacity=".081" stroke="#000" stroke-opacity=".02" points="23.667 0 47.333 15.667 23.667 31.333 0 15.667" transform="translate(142.0, 0.0)"/><polyline fill="#222" fill-opacity=".15" stroke="#000" stroke-opacity=".02" points="23.667 0 47.333 15.667 23.667 31.333 0 15.667" transform="translate(189.33333333333334, 0.0)"/><polyline fill="#222" fill-opacity=".115" stroke="#000" stroke-opacity=".02" points="23.667 0 47.333 15.667 23.667 31.333 0 15.667" transform="translate(236.66666666666669, 0.0)"/><polyline fill="#222" fill-opacity=".133" stroke="#000" stroke-opacity=".02" points="23.667 0 47.333 15.667 23.667 31.333 0 15.667" transform="translate(-23.666666666666668, 15.666666666666666)"/><polyline fill="#222" fill-opacity=".133" stroke="#000" stroke-opacity=".02" points="23.667 0 47.333 15.667 23.667 31.333 0 15.667" transform="translate(260.3333333333333, 15.666666666666666)"/><polyline fill="#222" fill-opacity=".046" stroke="#000" stroke-opacity=".02" points="23.667 0 47.333 15.667 23.667 31.333 0 15.667" transform="translate(23.666666666666668, 15.666666666666666)"/><polyline fill="#ddd" fill-opacity=".107" stroke="#000" stroke-opacity=".02" points="23.667 0 47.333 15.667 23.667 31.333 0 15.667" transform="translate(71.0, 15.666666666666666)"/><polyline fill="#222" fill-opacity=".046" stroke="#000" stroke-opacity=".02" points="23.667 0 47.333 15.667 23.667 31.333 0 15.667" transform="translate(118.33333333333333, 15.666666666666666)"/><polyline fill="#ddd" fill-opacity=".089" stroke="#000" stroke-opacity=".02" points="23.667 0 47.333 15.667 23.667 31.333 0 15.667" transform="translate(165.66666666666669, 15.666666666666666)"/><polyline fill="#222" fill-opacity=".046" stroke="#000" stroke-opacity=".02" points="23.667 0 47.333 15.667 23.667 31.333 0 15.667" transform="translate(213.00000000000003, 15.666666666666666)"/><polyline fill="#ddd" fill-opacity=".124" stroke="#000" stroke-opacity=".02" points="23.667 0 47.333 15.667 23.667 31.333 0 15.667" transform="translate(0.0, 31.333333333333336)"/><polyline fill="#ddd" fill-opacity=".124" stroke="#000" stroke-opacity=".02" points="23.667 0 47.333 15.667 23.667 31.333 0 15.667" transform="translate(284.0, 31.333333333333336)"/><polyline fill="#222" fill-opacity=".063" stroke="#000" stroke-opacity=".02" points="23.667 0 47.333 15.667 23.667 31.333 0 15.667" transform="translate(47.333333333333336, 31.333333333333336)"/><polyline fill="#222" fill-opacity=".046" stroke="#000" stroke-opacity=".02" points="23.667 0 47.333 15.667 23.667 31.333 0 15.667" transform="translate(94.66666666666667, 31.333333333333336)"/><polyline fill="#ddd" fill-opacity=".037" stroke="#000" stroke-opacity=".02" points="23.667 0 47.333 15.667 23.667 31.333 0 15.667" transform="translate(142.0, 31.333333333333336)"/><polyline fill="#222" fill-opacity=".029" stroke="#000" stroke-opacity=".02" points="23.667 0 47.333 15.667 23.667 31.333 0 15.667" transform="translate(189.33333333333334, 31.333333333333336)"/><polyline fill="#ddd" fill-opacity=".072" stroke="#000" stroke-opacity=".02" points="23.667 0 47.333 15.667 23.667 31.333 0 15.667" transform="translate(236.66666666666669, 31.333333333333336)"/><polyline fill="#222" fill-opacity=".081" stroke="#000" stroke-opacity=".02" points="23.667 0 47.333 15.667 23.667 31.333 0 15.667" transform="translate(-23.666666666666668, 47.0)"/><polyline fill="#222" fill-opacity=".081" stroke="#000" stroke-opacity=".02" points="23.667 0 47.333 15.667 23.667 31.333 0 15.667" transform="translate(260.3333333333333, 47.0)"/><polyline fill="#222" fill-opacity=".098" stroke="#000" stroke-opacity=".02" points="23.667 0 47.333 15.667 23.667 31.333 0 15.667" transform="translate(23.666666666666668, 47.0)"/><polyline fill="#222" fill-opacity=".098" stroke="#000" stroke-opacity=".02" points="23.667 0 47.333 15.667 23.667 31.333 0 15.667" transform="translate(71.0, 47.0)"/><polyline fill="#222" fill-opacity=".115" stroke="#000" stroke-opacity=".02" points="23.667 0 47.333 15.667 23.667 31.333 0 15.667" transform="translate(118.33333333333333, 47.0)"/><polyline fill="#ddd" fill-opacity=".141" stroke="#000" stroke-opacity=".02" points="23.667 0 47.333 15.667 23.667 31.333 0 15.667" transform="translate(165.66666666666669, 47.0)"/><polyline fill="#222" fill-opacity=".115" stroke="#000" stroke-opacity=".02" points="23.667 0 47.333 15.667 23.667 31.333 0 15.667" transform="translate(213.00000000000003, 47.0)"/><polyline fill="#ddd" fill-opacity=".055" stroke="#000" stroke-opacity=".02" points="23.667 0 47.333 15.667 23.667 31.333 0 15.667" transform="translate(0.0, 62.666666666666664)"/><polyline fill="#ddd" fill-opacity=".055" stroke="#000" stroke-opacity=".02" points="23.667 0 47.333 15.667 23.667 31.333 0 15.667" transform="translate(284.0, 62.666666666666664)"/><polyline fill="#222" fill-opacity=".115" stroke="#000" stroke-opacity=".02" points="23.667 0 47.333 15.667 23.667 31.333 0 15.667" transform="translate(47.333333333333336, 62.666666666666664)"/><polyline fill="#ddd" fill-opacity=".055" stroke="#000" stroke-opacity=".02" points="23.667 0 47.333 15.667 23.667 31.333 0 15.667" transform="translate(94.66666666666667, 62.666666666666664)"/><polyline fill="#222" fill-opacity=".063" stroke="#000" stroke-opacity=".02" points="23.667 0 47.333 15.667 23.667 31.333 0 15.667" transform="translate(142.0, 62.666666666666664)"/><polyline fill="#ddd" fill-opacity=".072" stroke="#000" stroke-opacity=".02" points="23.667 0 47.333 15.667 23.667 31.333 0 15.667" transform="translate(189.33333333333334, 62.666666666666664)"/><polyline fill="#ddd" fill-opacity=".055" stroke="#000" stroke-opacity=".02" points="23.667 0 47.333 15.667 23.667 31.333 0 15.667" transform="translate(236.66666666666669, 62.666666666666664)"/></svg>