<svg xmlns="http://www.w3.org/2000/svg" width="508" height="587"><rect width="100%" height="100%" x="0" y="0" fill="#3F904D"/><polyline fill="#ddd" fill-opacity=".141" stroke="#000" stroke-opacity=".02" points="0 48.959 28.267 0 84.8 0 113.067 48.959 84.8 97.919 28.267 97.919 0 48.959" transform="translate(-56.53333333333333, -48.95930282728026)"/><polyline fill="#ddd" fill-opacity=".141" stroke="#000" stroke-opacity=".02" points="0 48.959 28.267 0 84.8 0 113.067 48.959 84.8 97.919 28.267 97.919 0 48.959" transform="translate(452.26666666666665, -48.95930282728026)"/><polyline fill="#ddd" fill-opacity=".141" stroke="#000" stroke-opacity=".02" points="0 48.959 28.267 0 84.8 0 113.067 48.959 84.8 97.919 28.267 97.919 0 48.959" transform="translate(-56.53333333333333, 538.5523311000829)"/><polyline fill="#ddd" fill-opacity=".141" stroke="#000" stroke-opacity=".02" points="0 48.959 28.267 0 84.8 0 113.067 48.959 84.8 97.919 28.267 97.919 0 48.959" transform="translate(452.26666666666665, 538.5523311000828)"/><polyline fill="#ddd" fill-opacity=".089" stroke="#000" stroke-opacity=".02" points="0 48.959 28.267 0 84.8 0 113.067 48.959 84.8 97.919 28.267 97.919 0 48.959" transform="translate(28.266666666666666, 0.0)"/><polyline fill="#ddd" fill-opacity=".089" stroke="#000" stroke-opacity=".02" points="0 48.959 28.267 0 84.8 0 113.067 48.959 84.8 97.919 28.267 97.919 0 48.959" transform="translate(28.266666666666666, 587.5116339273632)"/><polyline fill="#222" fill-opacity=".133" stroke="#000" stroke-opacity=".02" points="0 48.959 28.267 0 84.8 0 113.067 48.959 84.8 97.919 28.267 97.919 0 48.959" transform="translate(113.06666666666666, -48.95930282728026)"/><polyline fill="#222" fill-opacity=".133" stroke="#000" stroke-opacity=".02" points="0 48.959 28.267 0 84.8 0 113.067 48.959 84.8 97.919 28.267 97.919 0 48.959" transform="translate(113.06666666666666, 538.5523311000829)"/><polyline fill="#222" fill-opacity=".15" stroke="#000" stroke-opacity=".02" points="0 48.959 28.267 0 84.8 0 113.067 48.959 84.8 97.919 28.267 97.919 0 48.959" transform="translate(197.86666666666665, 0.0)"/><polyline fill="#222" fill-opacity=".15" stroke="#000" stroke-opacity=".02" points="0 48.959 28.267 0 84.8 0 113.067 48.959 84.8 97.919 28.267 97.919 0 48.959" transform="translate(197.86666666666665, 587.5116339273632)"/><polyline fill="#222" fill-opacity=".098" stroke="#000" stroke-opacity=".02" points="0 48.959 28.267 0 84.8 0 113.067 48.959 84.8 97.919 28.267 97.919 0 48.959" transform="translate(282.66666666666663, -48.95930282728026)"/><polyline fill="#222" fill-opacity=".098" stroke="#000" stroke-opacity=".02" points="0 48.959 28.267 0 84.8 0 113.067 48.959 84.8 97.919 28.267 97.919 0 48.959" transform="translate(282.66666666666663, 538.5523311000829)"/><polyline fill="#ddd" fill-opacity=".072" stroke="#000" stroke-opacity=".02" points="0 48.959 28.267 0 84.8 0 113.067 48.959 84.8 97.919 28.267 97.919 0 48.959" transform="translate(367.4666666666666, 0.0)"/><polyline fill="#ddd" fill-opacity=".072" stroke="#000" stroke-opacity=".02" points="0 48.959 28.267 0 84.8 0 113.067 48.959 84.8 97.919 28.267 97.919 0 48.959" transform="translate(367.4666666666666, 587.5116339273632)"/><polyline fill="#ddd" fill-opacity=".072" stroke="#000" stroke-opacity=".02" points="0 48.959 28.267 0 84.8 0 113.067 48.959 84.8 97.919 28.267 97.919 0 48.959" transform="translate(-56.53333333333333, 48.95930282728026)"/><polyline fill="#ddd" fill-opacity=".072" stroke="#000" stroke-opacity=".02" points="0 48.959 28.267 0 84.8 0 113.067 48.959 84.8 97.919 28.267 97.919 0 48.959" transform="translate(452.26666666666665, 48.95930282728026)"/><polyline fill="#222" fill-opacity=".081" stroke="#000" stroke-opacity=".02" points="0 48.959 28.267 0 84.8 0 113.067 48.959 84.8 97.919 28.267 97.919 0 48.959" transform="translate(28.266666666666666, 97.91860565456054)"/><polyline fill="#ddd" fill-opacity=".072" stroke="#000" stroke-opacity=".02" points="0 48.959 28.267 0 84.8 0 113.067 48.959 84.8 97.919 28.267 97.919 0 48.959" transform="translate(113.06666666666666, 48.95930282728026)"/><polyline fill="#222" fill-opacity=".081" stroke="#000" stroke-opacity=".02" points="0 48.959 28.267 0 84.8 0 113.067 48.959 84.8 97.919 28.267 97.919 0 48.959" transform="translate(197.86666666666665, 97.91860565456054)"/><polyline fill="#222" fill-opacity=".15" stroke="#000" stroke-opacity=".02" points="0 48.959 28.267 0 84.8 0 113.067 48.959 84.8 97.919 28.267 97.919 0 48.959" transform="translate(282.66666666666663, 48.95930282728026)"/><polyline fill="#222" fill-opacity=".115" stroke="#000" stroke-opacity=".02" points="0 48.959 28.267 0 84.8 0 113.067 48.959 84.8 97.919 28.267 97.919 0 48.959" transform="translate(367.4666666666666, 97.91860565456054)"/><polyline fill="#222" fill-opacity=".133" stroke="#000" stroke-opacity=".02" points="0 48.959 28.267 0 84.8 0 113.067 48.959 84.8 97.919 28.267 97.919 0 48.959" transform="translate(-56.53333333333333, 146.8779084818408)"/><polyline fill="#222" fill-opacity=".133" stroke="#000" stroke-opacity=".02" points="0 48.959 28.267 0 84.8 0 113.067 48.959 84.8 97.919 28.267 97.919 0 48.959" transform="translate(452.26666666666665, 146.8779084818408)"/><polyline fill="#222" fill-opacity=".046" stroke="#000" stroke-opacity=".02" points="0 48.959 28.267 0 84.8 0 113.067 48.959 84.8 97.919 28.267 97.919 0 48.959" transform="translate(28.266666666666666, 195.83721130912105)"/><polyline fill="#ddd" fill-opacity=".107" stroke="#000" stroke-opacity=".02" points="0 48.959 28.267 0 84.8 0 113.067 48.959 84.8 97.919 28.267 97.919 0 48.959" transform="translate(113.06666666666666, 146.8779084818408)"/><polyline fill="#222" fill-opacity=".046" stroke="#000" stroke-opacity=".02" points="0 48.959 28.267 0 84.8 0 113.067 48.959 84.8 97.919 28.267 97.919 0 48.959" transform="translate(197.86666666666665, 195.83721130912105)"/><polyline fill="#ddd" fill-opacity=".089" stroke="#000" stroke-opacity=".02" points="0 48.959 28.267 0 84.8 0 113.067 48.959 84.8 97.919 28.267 97.919 0 48.959" transform="translate(282.66666666666663, 146.8779084818408)"/><polyline fill="#222" fill-opacity=".046" stroke="#000" stroke-opacity=".02" points="0 48.959 28.267 0 84.8 0 113.067 48.959 84.8 97.919 28.267 97.919 0 48.959" transform="translate(367.4666666666666, 195.83721130912105)"/><polyline fill="#ddd" fill-opacity=".124" stroke="#000" stroke-opacity=".02" points="0 48.959 28.267 0 84.8 0 113.067 48.959 84.8 97.919 28.267 97.919 0 48.959" transform="translate(-56.53333333333333, 244.79651413640133)"/><polyline fill="#ddd" fill-opacity=".124" stroke="#000" stroke-opacity=".02" points="0 48.959 28.267 0 84.8 0 113.067 48.959 84.8 97.919 28.267 97.919 0 48.959" transform="translate(452.26666666666665, 244.79651413640133)"/><polyline fill="#222" fill-opacity=".063" stroke="#000" stroke-opacity=".02" points="0 48.959 28.267 0 84.8 0 113.067 48.959 84.8 97.919 28.267 97.919 0 48.959" transform="translate(28.266666666666666, 293.7558169636816)"/><polyline fill="#222" fill-opacity=".046" stroke="#000" stroke-opacity=".02" points="0 48.959 28.267 0 84.8 0 113.067 48.959 84.8 97.919 28.267 97.919 0 48.959" transform="translate(113.06666666666666, 244.79651413640133)"/><polyline fill="#ddd" fill-opacity=".037" stroke="#000" stroke-opacity=".02" points="0 48.959 28.267 0 84.8 0 113.067 48.959 84.8 97.919 28.267 97.919 0 48.959" transform="translate(197.86666666666665, 293.7558169636816)"/><polyline fill="#222" fill-opacity=".029" stroke="#000" stroke-opacity=".02" points="0 48.959 28.267 0 84.8 0 113.067 48.959 84.8 97.919 28.267 97.919 0 48.959" transform="translate(282.66666666666663, 244.79651413640133)"/><polyline fill="#ddd" fill-opacity=".072" stroke="#000" stroke-opacity=".02" points="0 48.959 28.267 0 84.8 0 113.067 48.959 84.8 97.919 28.267 97.919 0 48.959" transform="translate(367.4666666666666, 293.7558169636816)"/><polyline fill="#222" fill-opacity=".081" stroke="#000" stroke-opacity=".02" points="0 48.959 28.267 0 84.8 0 113.067 48.959 84.8 97.919 28.267 97.919 0 48.959" transform="translate(-56.53333333333333, 342.7151197909618)"/><polyline fill="#222" fill-opacity=".081" stroke="#000" stroke-opacity=".02" points="0 48.959 28.267 0 84.8 0 113.067 48.959 84.8 97.919 28.267 97.919 0 48.959" transform="translate(452.26666666666665, 342.7151197909618)"/><polyline fill="#222" fill-opacity=".098" stroke="#000" stroke-opacity=".02" points="0 48.959 28.267 0 84.8 0 113.067 48.959 84.8 97.919 28.267 97.919 0 48.959" transform="translate(28.266666666666666, 391.6744226182421)"/><polyline fill="#222" fill-opacity=".098" stroke="#000" stroke-opacity=".02" points="0 48.959 28.267 0 84.8 0 113.067 48.959 84.8 97.919 28.267 97.919 0 48.959" transform="translate(113.06666666666666, 342.7151197909618)"/><polyline fill="#222" fill-opacity=".115" stroke="#000" stroke-opacity=".02" points="0 48.959 28.267 0 84.8 0 113.067 48.959 84.8 97.919 28.267 97.919 0 48.959" transform="translate(197.86666666666665, 391.6744226182421)"/><polyline fill="#ddd" fill-opacity=".141" stroke="#000" stroke-opacity=".02" points="0 48.959 28.267 0 84.8 0 113.067 48.959 84.8 97.919 28.267 97.919 0 48.959" transform="translate(282.66666666666663, 342.7151197909618)"/><polyline fill="#222" fill-opacity=".115" stroke="#000" stroke-opacity=".02" points="0 48.959 28.267 0 84.8 0 113.067 48.959 84.8 97.919 28.267 97.919 0 48.959" transform="translate(367.4666666666666, 391.6744226182421)"/><polyline fill="#ddd" fill-opacity=".055" stroke="#000" stroke-opacity=".02" points="0 48.959 28.267 0 84.8 0 113.067 48.959 84.8 97.919 28.267 97.919 0 48.959" transform="translate(-56.53333333333333, 440.6337254455223)"/><polyline fill="#ddd" fill-opacity=".055" stroke="#000" stroke-opacity=".02" points="0 48.959 28.267 0 84.8 0 113.067 48.959 84.8 97.919 28.267 97.919 0 48.959" transform="translate(452.26666666666665, 440.6337254455223)"/><polyline fill="#222" fill-opacity=".115" stroke="#000" stroke-opacity=".02" points="0 48.959 28.267 0 84.8 0 113.067 48.959 84.8 97.919 28.267 97.919 0 48.959" transform="translate(28.266666666666666, 489.59302827280254)"/><polyline fill="#ddd" fill-opacity=".055" stroke="#000" stroke-opacity=".02" points="0 48.959 28.267 0 84.8 0 113.067 48.959 84.8 97.919 28.267 97.919 0 48.959" transform="translate(113.06666666666666, 440.6337254455223)"/><polyline fill="#222" fill-opacity=".063" stroke="#000" stroke-opacity=".02" points="0 48.959 28.267 0 84.8 0 113.067 48.959 84.8 97.919 28.267 97.919 0 48.959" transform="translate(197.86666666666665, 489.59302827280254)"/><polyline fill="#ddd" fill-opacity=".072" stroke="#000" stroke-opacity=".02" points="0 48.959 28.267 0 84.8 0 113.067 48.959 84.8 97.919 28.267 97.919 0 48.959" transform="translate(282.66666666666663, 440.6337254455223)"/><polyline fill="#ddd" fill-opacity=".055" stroke="#000" stroke-opacity=".02" points="0 48.959 28.267 0 84.8 0 113.067 48.959 84.8 97.919 28.267 97.919 0 48.959" transform="translate(367.4666666666666, 489.59302827280254)"/></svg>