<svg xmlns="http://www.w3.org/2000/svg" width="381" height="381"><rect width="100%" height="100%" x="0" y="0" fill="#3F904D"/><polyline fill="#ddd" fill-opacity=".141" stroke="#000" stroke-opacity=".02" points="0 0 47.667 47.667 0 47.667 0 0" transform="translate(0.0, 47.666666666666664) scale(1, -1)"/><polyline fill="#ddd" fill-opacity=".141" stroke="#000" stroke-opacity=".02" points="0 0 47.667 47.667 0 47.667 0 0" transform="translate(95.33333333333333, 47.666666666666664) scale(-1, -1)"/><polyline fill="#ddd" fill-opacity=".141" stroke="#000" stroke-opacity=".02" points="0 0 47.667 47.667 0 47.667 0 0" transform="translate(0.0, 47.666666666666664) scale(1, 1)"/><polyline fill="#ddd" fill-opacity=".141" stroke="#000" stroke-opacity=".02" points="0 0 47.667 47.667 0 47.667 0 0" transform="translate(95.33333333333333, 47.666666666666664) scale(-1, 1)"/><polyline fill="#ddd" fill-opacity=".089" stroke="#000" stroke-opacity=".02" points="0 0 47.667 47.667 0 47.667 0 0" transform="translate(143.0, 0.0) scale(-1, 1)"/><polyline fill="#ddd" fill-opacity=".089" stroke="#000" stroke-opacity=".02" points="0 0 47.667 47.667 0 47.667 0 0" transform="translate(143.0, 95.33333333333333) scale(1, -1)"/><polyline fill="#222" fill-opacity=".133" stroke="#000" stroke-opacity=".02" points="0 0 47.667 47.667 0 47.667 0 0" transform="translate(143.0, 95.33333333333333) scale(-1, -1)"/><polyline fill="#222" fill-opacity=".133" stroke="#000" stroke-opacity=".02" points="0 0 47.667 47.667 0 47.667 0 0" transform="translate(143.0, 0.0) scale(1, 1)"/><polyline fill="#222" fill-opacity=".133" stroke="#000" stroke-opacity=".02" points="0 0 47.667 47.667 0 47.667 0 0" transform="translate(190.66666666666666, 47.666666666666664) scale(1, -1)"/><polyline fill="#222" fill-opacity=".133" stroke="#000" stroke-opacity=".02" points="0 0 47.667 47.667 0 47.667 0 0" transform="translate(286.0, 47.666666666666664) scale(-1, -1)"/><polyline fill="#222" fill-opacity=".133" stroke="#000" stroke-opacity=".02" points="0 0 47.667 47.667 0 47.667 0 0" transform="translate(190.66666666666666, 47.666666666666664) scale(1, 1)"/><polyline fill="#222" fill-opacity=".133" stroke="#000" stroke-opacity=".02" points="0 0 47.667 47.667 0 47.667 0 0" transform="translate(286.0, 47.666666666666664) scale(-1, 1)"/><polyline fill="#222" fill-opacity=".15" stroke="#000" stroke-opacity=".02" points="0 0 47.667 47.667 0 47.667 0 0" transform="translate(333.6666666666667, 0.0) scale(-1, 1)"/><polyline fill="#222" fill-opacity=".15" stroke="#000" stroke-opacity=".02" points="0 0 47.667 47.667 0 47.667 0 0" transform="translate(333.6666666666667, 95.33333333333333) scale(1, -1)"/><polyline fill="#222" fill-opacity=".098" stroke="#000" stroke-opacity=".02" points="0 0 47.667 47.667 0 47.667 0 0" transform="translate(333.6666666666667, 95.33333333333333) scale(-1, -1)"/><polyline fill="#222" fill-opacity=".098" stroke="#000" stroke-opacity=".02" points="0 0 47.667 47.667 0 47.667 0 0" transform="translate(333.6666666666667, 0.0) scale(1, 1)"/><polyline fill="#222" fill-opacity=".098" stroke="#000" stroke-opacity=".02" points="0 0 47.667 47.667 0 47.667 0 0" transform="translate(47.666666666666664, 95.33333333333333) scale(-1, 1)"/><polyline fill="#222" fill-opacity=".098" stroke="#000" stroke-opacity=".02" points="0 0 47.667 47.667 0 47.667 0 0" transform="translate(47.666666666666664, 190.66666666666666) scale(1, -1)"/><polyline fill="#ddd" fill-opacity=".072" stroke="#000" stroke-opacity=".02" points="0 0 47.667 47.667 0 47.667 0 0" transform="translate(47.666666666666664, 190.66666666666666) scale(-1, -1)"/><polyline fill="#ddd" fill-opacity=".072" stroke="#000" stroke-opacity=".02" points="0 0 47.667 47.667 0 47.667 0 0" transform="translate(47.666666666666664, 95.33333333333333) scale(1, 1)"/><polyline fill="#ddd" fill-opacity=".072" stroke="#000" stroke-opacity=".02" points="0 0 47.667 47.667 0 47.667 0 0" transform="translate(95.33333333333333, 143.0) scale(1, -1)"/><polyline fill="#ddd" fill-opacity=".072" stroke="#000" stroke-opacity=".02" points="0 0 47.667 47.667 0 47.667 0 0" transform="translate(190.66666666666666, 143.0) scale(-1, -1)"/><polyline fill="#ddd" fill-opacity=".072" stroke="#000" stroke-opacity=".02" points="0 0 47.667 47.667 0 47.667 0 0" transform="translate(95.33333333333333, 143.0) scale(1, 1)"/><polyline fill="#ddd" fill-opacity=".072" stroke="#000" stroke-opacity=".02" points="0 0 47.667 47.667 0 47.667 0 0" transform="translate(190.66666666666666, 143.0) scale(-1, 1)"/><polyline fill="#ddd" fill-opacity=".072" stroke="#000" stroke-opacity=".02" points="0 0 47.667 47.667 0 47.667 0 0" transform="translate(238.33333333333331, 95.33333333333333) scale(-1, 1)"/><polyline fill="#ddd" fill-opacity=".072" stroke="#000" stroke-opacity=".02" points="0 0 47.667 47.667 0 47.667 0 0" transform="translate(238.33333333333331, 190.66666666666666) scale(1, -1)"/><polyline fill="#222" fill-opacity=".081" stroke="#000" stroke-opacity=".02" points="0 0 47.667 47.667 0 47.667 0 0" transform="translate(238.33333333333331, 190.66666666666666) scale(-1, -1)"/><polyline fill="#222" fill-opacity=".081" stroke="#000" stroke-opacity=".02" points="0 0 47.667 47.667 0 47.667 0 0" transform="translate(238.33333333333331, 95.33333333333333) scale(1, 1)"/><polyline fill="#222" fill-opacity=".081" stroke="#000" stroke-opacity=".02" points="0 0 47.667 47.667 0 47.667 0 0" transform="translate(286.0, 143.0) scale(1, -1)"/><polyline fill="#222" fill-opacity=".081" stroke="#000" stroke-opacity=".02" points="0 0 47.667 47.667 0 47.667 0 0" transform="translate(381.3333333333333, 143.0) scale(-1, -1)"/><polyline fill="#222" fill-opacity=".081" stroke="#000" stroke-opacity=".02" points="0 0 47.667 47.667 0 47.667 0 0" transform="translate(286.0, 143.0) scale(1, 1)"/><polyline fill="#222" fill-opacity=".081" stroke="#000" stroke-opacity=".02" points="0 0 47.667 47.667 0 47.667 0 0" transform="translate(381.3333333333333, 143.0) scale(-1, 1)"/><polyline fill="#ddd" fill-opacity=".072" stroke="#000" stroke-opacity=".02" points="0 0 47.667 47.667 0 47.667 0 0" transform="translate(0.0, 238.33333333333331) scale(1, -1)"/><polyline fill="#ddd" fill-opacity=".072" stroke="#000" stroke-opacity=".02" points="0 0 47.667 47.667 0 47.667 0 0" transform="translate(95.33333333333333, 238.33333333333331) scale(-1, -1)"/><polyline fill="#ddd" fill-opacity=".072" stroke="#000" stroke-opacity=".02" points="0 0 47.667 47.667 0 47.667 0 0" transform="translate(0.0, 238.33333333333331) scale(1, 1)"/><polyline fill="#ddd" fill-opacity=".072" stroke="#000" stroke-opacity=".02" points="0 0 47.667 47.667 0 47.667 0 0" transform="translate(95.33333333333333, 238.33333333333331) scale(-1, 1)"/><polyline fill="#222" fill-opacity=".081" stroke="#000" stroke-opacity=".02" points="0 0 47.667 47.667 0 47.667 0 0" transform="translate(143.0, 190.66666666666666) scale(-1, 1)"/><polyline fill="#222" fill-opacity=".081" stroke="#000" stroke-opacity=".02" points="0 0 47.667 47.667 0 47.667 0 0" transform="translate(143.0, 286.0) scale(1, -1)"/><polyline fill="#222" fill-opacity=".15" stroke="#000" stroke-opacity=".02" points="0 0 47.667 47.667 0 47.667 0 0" transform="translate(143.0, 286.0) scale(-1, -1)"/><polyline fill="#222" fill-opacity=".15" stroke="#000" stroke-opacity=".02" points="0 0 47.667 47.667 0 47.667 0 0" transform="translate(143.0, 190.66666666666666) scale(1, 1)"/><polyline fill="#222" fill-opacity=".15" stroke="#000" stroke-opacity=".02" points="0 0 47.667 47.667 0 47.667 0 0" transform="translate(190.66666666666666, 238.33333333333331) scale(1, -1)"/><polyline fill="#222" fill-opacity=".15" stroke="#000" stroke-opacity=".02" points="0 0 47.667 47.667 0 47.667 0 0" transform="translate(286.0, 238.33333333333331) scale(-1, -1)"/><polyline fill="#222" fill-opacity=".15" stroke="#000" stroke-opacity=".02" points="0 0 47.667 47.667 0 47.667 0 0" transform="translate(190.66666666666666, 238.33333333333331) scale(1, 1)"/><polyline fill="#222" fill-opacity=".15" stroke="#000" stroke-opacity=".02" points="0 0 47.667 47.667 0 47.667 0 0" transform="translate(286.0, 238.33333333333331) scale(-1, 1)"/><polyline fill="#222" fill-opacity=".115" stroke="#000" stroke-opacity=".02" points="0 0 47.667 47.667 0 47.667 0 0" transform="translate(333.6666666666667, 190.66666666666666) scale(-1, 1)"/><polyline fill="#222" fill-opacity=".115" stroke="#000" stroke-opacity=".02" points="0 0 47.667 47.667 0 47.667 0 0" transform="translate(333.6666666666667, 286.0) scale(1, -1)"/><polyline fill="#222" fill-opacity=".133" stroke="#000" stroke-opacity=".02" points="0 0 47.667 47.667 0 47.667 0 0" transform="translate(333.6666666666667, 286.0) scale(-1, -1)"/><polyline fill="#222" fill-opacity=".133" stroke="#000" stroke-opacity=".02" points="0 0 47.667 47.667 0 47.667 0 0" transform="translate(333.6666666666667, 190.66666666666666) scale(1, 1)"/><polyline fill="#222" fill-opacity=".133" stroke="#000" stroke-opacity=".02" points="0 0 47.667 47.667 0 47.667 0 0" transform="translate(47.666666666666664, 286.0) scale(-1, 1)"/><polyline fill="#222" fill-opacity=".133" stroke="#000" stroke-opacity=".02" points="0 0 47.667 47.667 0 47.667 0 0" transform="translate(47.666666666666664, 381.3333333333333) scale(1, -1)"/><polyline fill="#222" fill-opacity=".046" stroke="#000" stroke-opacity=".02" points="0 0 47.667 47.667 0 47.667 0 0" transform="translate(47.666666666666664, 381.3333333333333) scale(-1, -1)"/><polyline fill="#222" fill-opacity=".046" stroke="#000" stroke-opacity=".02" points="0 0 47.667 47.667 0 47.667 0 0" transform="translate(47.666666666666664, 286.0) scale(1, 1)"/><polyline fill="#222" fill-opacity=".046" stroke="#000" stroke-opacity=".02" points="0 0 47.667 47.667 0 47.667 0 0" transform="translate(95.33333333333333, 333.6666666666667) scale(1, -1)"/><polyline fill="#222" fill-opacity=".046" stroke="#000" stroke-opacity=".02" points="0 0 47.667 47.667 0 47.667 0 0" transform="translate(190.66666666666666, 333.6666666666667) scale(-1, -1)"/><polyline fill="#222" fill-opacity=".046" stroke="#000" stroke-opacity=".02" points="0 0 47.667 47.667 0 47.667 0 0" transform="translate(95.33333333333333, 333.6666666666667) scale(1, 1)"/><polyline fill="#222" fill-opacity=".046" stroke="#000" stroke-opacity=".02" points="0 0 47.667 47.667 0 47.667 0 0" transform="translate(190.66666666666666, 333.6666666666667) scale(-1, 1)"/><polyline fill="#ddd" fill-opacity=".107" stroke="#000" stroke-opacity=".02" points="0 0 47.667 47.667 0 47.667 0 0" transform="translate(238.33333333333331, 286.0) scale(-1, 1)"/><polyline fill="#ddd" fill-opacity=".107" stroke="#000" stroke-opacity=".02" points="0 0 47.667 47.667 0 47.667 0 0" transform="translate(238.33333333333331, 381.3333333333333) scale(1, -1)"/><polyline fill="#222" fill-opacity=".046" stroke="#000" stroke-opacity=".02" points="0 0 47.667 47.667 0 47.667 0 0" transform="translate(238.33333333333331, 381.3333333333333) scale(-1, -1)"/><polyline fill="#222" fill-opacity=".046" stroke="#000" stroke-opacity=".02" points="0 0 47.667 47.667 0 47.667 0 0" transform="translate(238.33333333333331, 286.0) scale(1, 1)"/><polyline fill="#222" fill-opacity=".046" stroke="#000" stroke-opacity=".02" points="0 0 47.667 47.667 0 47.667 0 0" transform="translate(286.0, 333.6666666666667) scale(1, -1)"/><polyline fill="#222" fill-opacity=".046" stroke="#000" stroke-opacity=".02" points="0 0 47.667 47.667 0 47.667 0 0" transform="translate(381.3333333333333, 333.6666666666667) scale(-1, -1)"/><polyline fill="#222" fill-opacity=".046" stroke="#000" stroke-opacity=".02" points="0 0 47.667 47.667 0 47.667 0 0" transform="translate(286.0, 333.6666666666667) scale(1, 1)"/><polyline fill="#222" fill-opacity=".046" stroke="#000" stroke-opacity=".02" points="0 0 47.667 47.667 0 47.667 0 0" transform="translate(381.3333333333333, 333.6666666666667) scale(-1, 1)"/></svg>