<svg xmlns="http://www.w3.org/2000/svg" width="619" height="619"><rect width="100%" height="100%" x="0" y="0" fill="#3F904D"/><rect width="80.267" height="80.267" x="5.733" y="5.733" fill="none" stroke="#ddd" style="opacity:.14133333333333334;stroke-width:11.466666666666667px"/><rect width="34.4" height="34.4" x="28.667" y="28.667" fill="none" stroke="#ddd" style="opacity:.05466666666666667;stroke-width:11.466666666666667px"/><rect width="80.267" height="80.267" x="108.933" y="5.733" fill="none" stroke="#ddd" style="opacity:.08933333333333333;stroke-width:11.466666666666667px"/><rect width="34.4" height="34.4" x="131.867" y="28.667" fill="none" stroke="#222" style="opacity:.08066666666666666;stroke-width:11.466666666666667px"/><rect width="80.267" height="80.267" x="212.133" y="5.733" fill="none" stroke="#222" style="opacity:.13266666666666665;stroke-width:11.466666666666667px"/><rect width="34.4" height="34.4" x="235.067" y="28.667" fill="none" stroke="#222" style="opacity:.11533333333333334;stroke-width:11.466666666666667px"/><rect width="80.267" height="80.267" x="315.333" y="5.733" fill="none" stroke="#222" style="opacity:.15;stroke-width:11.466666666666667px"/><rect width="34.4" height="34.4" x="338.267" y="28.667" fill="none" stroke="#ddd" style="opacity:.12400000000000001;stroke-width:11.466666666666667px"/><rect width="80.267" height="80.267" x="418.533" y="5.733" fill="none" stroke="#222" style="opacity:.098;stroke-width:11.466666666666667px"/><rect width="34.4" height="34.4" x="441.467" y="28.667" fill="none" stroke="#ddd" style="opacity:.05466666666666667;stroke-width:11.466666666666667px"/><rect width="80.267" height="80.267" x="521.733" y="5.733" fill="none" stroke="#ddd" style="opacity:.07200000000000001;stroke-width:11.466666666666667px"/><rect width="34.4" height="34.4" x="544.667" y="28.667" fill="none" stroke="#ddd" style="opacity:.07200000000000001;stroke-width:11.466666666666667px"/><rect width="80.267" height="80.267" x="5.733" y="108.933" fill="none" stroke="#ddd" style="opacity:.07200000000000001;stroke-width:11.466666666666667px"/><rect width="34.4" height="34.4" x="28.667" y="131.867" fill="none" stroke="#222" style="opacity:.06333333333333334;stroke-width:11.466666666666667px"/><rect width="80.267" height="80.267" x="108.933" y="108.933" fill="none" stroke="#222" style="opacity:.08066666666666666;stroke-width:11.466666666666667px"/><rect width="34.4" height="34.4" x="131.867" y="131.867" fill="none" stroke="#ddd" style="opacity:.05466666666666667;stroke-width:11.466666666666667px"/><rect width="80.267" height="80.267" x="212.133" y="108.933" fill="none" stroke="#ddd" style="opacity:.07200000000000001;stroke-width:11.466666666666667px"/><rect width="34.4" height="34.4" x="235.067" y="131.867" fill="none" stroke="#222" style="opacity:.11533333333333334;stroke-width:11.466666666666667px"/><rect width="80.267" height="80.267" x="315.333" y="108.933" fill="none" stroke="#222" style="opacity:.08066666666666666;stroke-width:11.466666666666667px"/><rect width="34.4" height="34.4" x="338.267" y="131.867" fill="none" stroke="#ddd" style="opacity:.05466666666666667;stroke-width:11.466666666666667px"/><rect width="80.267" height="80.267" x="418.533" y="108.933" fill="none" stroke="#222" style="opacity:.15;stroke-width:11.466666666666667px"/><rect width="34.4" height="34.4" x="441.467" y="131.867" fill="none" stroke="#222" style="opacity:.11533333333333334;stroke-width:11.466666666666667px"/><rect width="80.267" height="80.267" x="521.733" y="108.933" fill="none" stroke="#222" style="opacity:.11533333333333334;stroke-width:11.466666666666667px"/><rect width="34.4" height="34.4" x="544.667" y="131.867" fill="none" stroke="#ddd" style="opacity:.14133333333333334;stroke-width:11.466666666666667px"/><rect width="80.267" height="80.267" x="5.733" y="212.133" fill="none" stroke="#222" style="opacity:.13266666666666665;stroke-width:11.466666666666667px"/><rect width="34.4" height="34.4" x="28.667" y="235.067" fill="none" stroke="#222" style="opacity:.11533333333333334;stroke-width:11.466666666666667px"/><rect width="80.267" height="80.267" x="108.933" y="212.133" fill="none" stroke="#222" style="opacity:.046;stroke-width:11.466666666666667px"/><rect width="34.4" height="34.4" x="131.867" y="235.067" fill="none" stroke="#222" style="opacity:.098;stroke-width:11.466666666666667px"/><rect width="80.267" height="80.267" x="212.133" y="212.133" fill="none" stroke="#ddd" style="opacity:.10666666666666667;stroke-width:11.466666666666667px"/><rect width="34.4" height="34.4" x="235.067" y="235.067" fill="none" stroke="#222" style="opacity:.098;stroke-width:11.466666666666667px"/><rect width="80.267" height="80.267" x="315.333" y="212.133" fill="none" stroke="#222" style="opacity:.046;stroke-width:11.466666666666667px"/><rect width="34.4" height="34.4" x="338.267" y="235.067" fill="none" stroke="#222" style="opacity:.08066666666666666;stroke-width:11.466666666666667px"/><rect width="80.267" height="80.267" x="418.533" y="212.133" fill="none" stroke="#ddd" style="opacity:.08933333333333333;stroke-width:11.466666666666667px"/><rect width="34.4" height="34.4" x="441.467" y="235.067" fill="none" stroke="#ddd" style="opacity:.07200000000000001;stroke-width:11.466666666666667px"/><rect width="80.267" height="80.267" x="521.733" y="212.133" fill="none" stroke="#222" style="opacity:.046;stroke-width:11.466666666666667px"/><rect width="34.4" height="34.4" x="544.667" y="235.067" fill="none" stroke="#222" style="opacity:.028666666666666667;stroke-width:11.466666666666667px"/><rect width="80.267" height="80.267" x="5.733" y="315.333" fill="none" stroke="#ddd" style="opacity:.12400000000000001;stroke-width:11.466666666666667px"/><rect width="34.4" height="34.4" x="28.667" y="338.267" fill="none" stroke="#ddd" style="opacity:.03733333333333333;stroke-width:11.466666666666667px"/><rect width="80.267" height="80.267" x="108.933" y="315.333" fill="none" stroke="#222" style="opacity:.06333333333333334;stroke-width:11.466666666666667px"/><rect width="34.4" height="34.4" x="131.867" y="338.267" fill="none" stroke="#222" style="opacity:.046;stroke-width:11.466666666666667px"/><rect width="80.267" height="80.267" x="212.133" y="315.333" fill="none" stroke="#222" style="opacity:.046;stroke-width:11.466666666666667px"/><rect width="34.4" height="34.4" x="235.067" y="338.267" fill="none" stroke="#222" style="opacity:.06333333333333334;stroke-width:11.466666666666667px"/><rect width="80.267" height="80.267" x="315.333" y="315.333" fill="none" stroke="#ddd" style="opacity:.03733333333333333;stroke-width:11.466666666666667px"/><rect width="34.4" height="34.4" x="338.267" y="338.267" fill="none" stroke="#ddd" style="opacity:.12400000000000001;stroke-width:11.466666666666667px"/><rect width="80.267" height="80.267" x="418.533" y="315.333" fill="none" stroke="#222" style="opacity:.028666666666666667;stroke-width:11.466666666666667px"/><rect width="34.4" height="34.4" x="441.467" y="338.267" fill="none" stroke="#222" style="opacity:.046;stroke-width:11.466666666666667px"/><rect width="80.267" height="80.267" x="521.733" y="315.333" fill="none" stroke="#ddd" style="opacity:.07200000000000001;stroke-width:11.466666666666667px"/><rect width="34.4" height="34.4" x="544.667" y="338.267" fill="none" stroke="#ddd" style="opacity:.08933333333333333;stroke-width:11.466666666666667px"/><rect width="80.267" height="80.267" x="5.733" y="418.533" fill="none" stroke="#222" style="opacity:.08066666666666666;stroke-width:11.466666666666667px"/><rect width="34.4" height="34.4" x="28.667" y="441.467" fill="none" stroke="#222" style="opacity:.046;stroke-width:11.466666666666667px"/><rect width="80.267" height="80.267" x="108.933" y="418.533" fill="none" stroke="#222" style="opacity:.098;stroke-width:11.466666666666667px"/><rect width="34.4" height="34.4" x="131.867" y="441.467" fill="none" stroke="#ddd" style="opacity:.10666666666666667;stroke-width:11.466666666666667px"/><rect width="80.267" height="80.267" x="212.133" y="418.533" fill="none" stroke="#222" style="opacity:.098;stroke-width:11.466666666666667px"/><rect width="34.4" height="34.4" x="235.067" y="441.467" fill="none" stroke="#222" style="opacity:.046;stroke-width:11.466666666666667px"/><rect width="80.267" height="80.267" x="315.333" y="418.533" fill="none" stroke="#222" style="opacity:.11533333333333334;stroke-width:11.466666666666667px"/><rect width="34.4" height="34.4" x="338.267" y="441.467" fill="none" stroke="#222" style="opacity:.13266666666666665;stroke-width:11.466666666666667px"/><rect width="80.267" height="80.267" x="418.533" y="418.533" fill="none" stroke="#ddd" style="opacity:.14133333333333334;stroke-width:11.466666666666667px"/><rect width="34.4" height="34.4" x="441.467" y="441.467" fill="none" stroke="#222" style="opacity:.11533333333333334;stroke-width:11.466666666666667px"/><rect width="80.267" height="80.267" x="521.733" y="418.533" fill="none" stroke="#222" style="opacity:.11533333333333334;stroke-width:11.466666666666667px"/><rect width="34.4" height="34.4" x="544.667" y="441.467" fill="none" stroke="#222" style="opacity:.15;stroke-width:11.466666666666667px"/><rect width="80.267" height="80.267" x="5.733" y="521.733" fill="none" stroke="#ddd" style="opacity:.05466666666666667;stroke-width:11.466666666666667px"/><rect width="34.4" height="34.4" x="28.667" y="544.667" fill="none" stroke="#222" style="opacity:.08066666666666666;stroke-width:11.466666666666667px"/><rect width="80.267" height="80.267" x="108.933" y="521.733" fill="none" stroke="#222" style="opacity:.11533333333333334;stroke-width:11.466666666666667px"/><rect width="34.4" height="34.4" x="131.867" y="544.667" fill="none" stroke="#ddd" style="opacity:.07200000000000001;stroke-width:11.466666666666667px"/><rect width="80.267" height="80.267" x="212.133" y="521.733" fill="none" stroke="#ddd" style="opacity:.05466666666666667;stroke-width:11.466666666666667px"/><rect width="34.4" height="34.4" x="235.067" y="544.667" fill="none" stroke="#222" style="opacity:.08066666666666666;stroke-width:11.466666666666667px"/><rect width="80.267" height="80.267" x="315.333" y="521.733" fill="none" stroke="#222" style="opacity:.06333333333333334;stroke-width:11.466666666666667px"/><rect width="34.4" height="34.4" x="338.267" y="544.667" fill="none" stroke="#ddd" style="opacity:.07200000000000001;stroke-width:11.466666666666667px"/><rect width="80.267" height="80.267" x="418.533" y="521.733" fill="none" stroke="#ddd" style="opacity:.07200000000000001;stroke-width:11.466666666666667px"/><rect width="34.4" height="34.4" x="441.467" y="544.667" fill="none" stroke="#ddd" style="opacity:.07200000000000001;stroke-width:11.466666666666667px"/><rect width="80.267" height="80.267" x="521.733" y="521.733" fill="none" stroke="#ddd" style="opacity:.05466666666666667;stroke-width:11.466666666666667px"/><rect width="34.4" height="34.4" x="544.667" y="544.667" fill="none" stroke="#222" style="opacity:.098;stroke-width:11.466666666666667px"/></svg>