<svg xmlns="http://www.w3.org/2000/svg" width="340" height="340"><rect width="100%" height="100%" x="0" y="0" fill="#3F904D"/><polyline fill="#ddd" fill-opacity=".141" stroke="#000" stroke-opacity=".02" points="18.7 0 37.967 0 56.667 18.7 56.667 37.967 37.967 56.667 18.7 56.667 0 37.967 0 18.7 18.7 0" transform="translate(0.0, 0.0)"/><polyline fill="#ddd" fill-opacity=".089" stroke="#000" stroke-opacity=".02" points="18.7 0 37.967 0 56.667 18.7 56.667 37.967 37.967 56.667 18.7 56.667 0 37.967 0 18.7 18.7 0" transform="translate(56.666666666666664, 0.0)"/><polyline fill="#222" fill-opacity=".133" stroke="#000" stroke-opacity=".02" points="18.7 0 37.967 0 56.667 18.7 56.667 37.967 37.967 56.667 18.7 56.667 0 37.967 0 18.7 18.7 0" transform="translate(113.33333333333333, 0.0)"/><polyline fill="#222" fill-opacity=".15" stroke="#000" stroke-opacity=".02" points="18.7 0 37.967 0 56.667 18.7 56.667 37.967 37.967 56.667 18.7 56.667 0 37.967 0 18.7 18.7 0" transform="translate(170.0, 0.0)"/><polyline fill="#222" fill-opacity=".098" stroke="#000" stroke-opacity=".02" points="18.7 0 37.967 0 56.667 18.7 56.667 37.967 37.967 56.667 18.7 56.667 0 37.967 0 18.7 18.7 0" transform="translate(226.66666666666666, 0.0)"/><polyline fill="#ddd" fill-opacity=".072" stroke="#000" stroke-opacity=".02" points="18.7 0 37.967 0 56.667 18.7 56.667 37.967 37.967 56.667 18.7 56.667 0 37.967 0 18.7 18.7 0" transform="translate(283.3333333333333, 0.0)"/><polyline fill="#ddd" fill-opacity=".072" stroke="#000" stroke-opacity=".02" points="18.7 0 37.967 0 56.667 18.7 56.667 37.967 37.967 56.667 18.7 56.667 0 37.967 0 18.7 18.7 0" transform="translate(0.0, 56.666666666666664)"/><polyline fill="#222" fill-opacity=".081" stroke="#000" stroke-opacity=".02" points="18.7 0 37.967 0 56.667 18.7 56.667 37.967 37.967 56.667 18.7 56.667 0 37.967 0 18.7 18.7 0" transform="translate(56.666666666666664, 56.666666666666664)"/><polyline fill="#ddd" fill-opacity=".072" stroke="#000" stroke-opacity=".02" points="18.7 0 37.967 0 56.667 18.7 56.667 37.967 37.967 56.667 18.7 56.667 0 37.967 0 18.7 18.7 0" transform="translate(113.33333333333333, 56.666666666666664)"/><polyline fill="#222" fill-opacity=".081" stroke="#000" stroke-opacity=".02" points="18.7 0 37.967 0 56.667 18.7 56.667 37.967 37.967 56.667 18.7 56.667 0 37.967 0 18.7 18.7 0" transform="translate(170.0, 56.666666666666664)"/><polyline fill="#222" fill-opacity=".15" stroke="#000" stroke-opacity=".02" points="18.7 0 37.967 0 56.667 18.7 56.667 37.967 37.967 56.667 18.7 56.667 0 37.967 0 18.7 18.7 0" transform="translate(226.66666666666666, 56.666666666666664)"/><polyline fill="#222" fill-opacity=".115" stroke="#000" stroke-opacity=".02" points="18.7 0 37.967 0 56.667 18.7 56.667 37.967 37.967 56.667 18.7 56.667 0 37.967 0 18.7 18.7 0" transform="translate(283.3333333333333, 56.666666666666664)"/><polyline fill="#222" fill-opacity=".133" stroke="#000" stroke-opacity=".02" points="18.7 0 37.967 0 56.667 18.7 56.667 37.967 37.967 56.667 18.7 56.667 0 37.967 0 18.7 18.7 0" transform="translate(0.0, 113.33333333333333)"/><polyline fill="#222" fill-opacity=".046" stroke="#000" stroke-opacity=".02" points="18.7 0 37.967 0 56.667 18.7 56.667 37.967 37.967 56.667 18.7 56.667 0 37.967 0 18.7 18.7 0" transform="translate(56.666666666666664, 113.33333333333333)"/><polyline fill="#ddd" fill-opacity=".107" stroke="#000" stroke-opacity=".02" points="18.7 0 37.967 0 56.667 18.7 56.667 37.967 37.967 56.667 18.7 56.667 0 37.967 0 18.7 18.7 0" transform="translate(113.33333333333333, 113.33333333333333)"/><polyline fill="#222" fill-opacity=".046" stroke="#000" stroke-opacity=".02" points="18.7 0 37.967 0 56.667 18.7 56.667 37.967 37.967 56.667 18.7 56.667 0 37.967 0 18.7 18.7 0" transform="translate(170.0, 113.33333333333333)"/><polyline fill="#ddd" fill-opacity=".089" stroke="#000" stroke-opacity=".02" points="18.7 0 37.967 0 56.667 18.7 56.667 37.967 37.967 56.667 18.7 56.667 0 37.967 0 18.7 18.7 0" transform="translate(226.66666666666666, 113.33333333333333)"/><polyline fill="#222" fill-opacity=".046" stroke="#000" stroke-opacity=".02" points="18.7 0 37.967 0 56.667 18.7 56.667 37.967 37.967 56.667 18.7 56.667 0 37.967 0 18.7 18.7 0" transform="translate(283.3333333333333, 113.33333333333333)"/><polyline fill="#ddd" fill-opacity=".124" stroke="#000" stroke-opacity=".02" points="18.7 0 37.967 0 56.667 18.7 56.667 37.967 37.967 56.667 18.7 56.667 0 37.967 0 18.7 18.7 0" transform="translate(0.0, 170.0)"/><polyline fill="#222" fill-opacity=".063" stroke="#000" stroke-opacity=".02" points="18.7 0 37.967 0 56.667 18.7 56.667 37.967 37.967 56.667 18.7 56.667 0 37.967 0 18.7 18.7 0" transform="translate(56.666666666666664, 170.0)"/><polyline fill="#222" fill-opacity=".046" stroke="#000" stroke-opacity=".02" points="18.7 0 37.967 0 56.667 18.7 56.667 37.967 37.967 56.667 18.7 56.667 0 37.967 0 18.7 18.7 0" transform="translate(113.33333333333333, 170.0)"/><polyline fill="#ddd" fill-opacity=".037" stroke="#000" stroke-opacity=".02" points="18.7 0 37.967 0 56.667 18.7 56.667 37.967 37.967 56.667 18.7 56.667 0 37.967 0 18.7 18.7 0" transform="translate(170.0, 170.0)"/><polyline fill="#222" fill-opacity=".029" stroke="#000" stroke-opacity=".02" points="18.7 0 37.967 0 56.667 18.7 56.667 37.967 37.967 56.667 18.7 56.667 0 37.967 0 18.7 18.7 0" transform="translate(226.66666666666666, 170.0)"/><polyline fill="#ddd" fill-opacity=".072" stroke="#000" stroke-opacity=".02" points="18.7 0 37.967 0 56.667 18.7 56.667 37.967 37.967 56.667 18.7 56.667 0 37.967 0 18.7 18.7 0" transform="translate(283.3333333333333, 170.0)"/><polyline fill="#222" fill-opacity=".081" stroke="#000" stroke-opacity=".02" points="18.7 0 37.967 0 56.667 18.7 56.667 37.967 37.967 56.667 18.7 56.667 0 37.967 0 18.7 18.7 0" transform="translate(0.0, 226.66666666666666)"/><polyline fill="#222" fill-opacity=".098" stroke="#000" stroke-opacity=".02" points="18.7 0 37.967 0 56.667 18.7 56.667 37.967 37.967 56.667 18.7 56.667 0 37.967 0 18.7 18.7 0" transform="translate(56.666666666666664, 226.66666666666666)"/><polyline fill="#222" fill-opacity=".098" stroke="#000" stroke-opacity=".02" points="18.7 0 37.967 0 56.667 18.7 56.667 37.967 37.967 56.667 18.7 56.667 0 37.967 0 18.7 18.7 0" transform="translate(113.33333333333333, 226.66666666666666)"/><polyline fill="#222" fill-opacity=".115" stroke="#000" stroke-opacity=".02" points="18.7 0 37.967 0 56.667 18.7 56.667 37.967 37.967 56.667 18.7 56.667 0 37.967 0 18.7 18.7 0" transform="translate(170.0, 226.66666666666666)"/><polyline fill="#ddd" fill-opacity=".141" stroke="#000" stroke-opacity=".02" points="18.7 0 37.967 0 56.667 18.7 56.667 37.967 37.967 56.667 18.7 56.667 0 37.967 0 18.7 18.7 0" transform="translate(226.66666666666666, 226.66666666666666)"/><polyline fill="#222" fill-opacity=".115" stroke="#000" stroke-opacity=".02" points="18.7 0 37.967 0 56.667 18.7 56.667 37.967 37.967 56.667 18.7 56.667 0 37.967 0 18.7 18.7 0" transform="translate(283.3333333333333, 226.66666666666666)"/><polyline fill="#ddd" fill-opacity=".055" stroke="#000" stroke-opacity=".02" points="18.7 0 37.967 0 56.667 18.7 56.667 37.967 37.967 56.667 18.7 56.667 0 37.967 0 18.7 18.7 0" transform="translate(0.0, 283.3333333333333)"/><polyline fill="#222" fill-opacity=".115" stroke="#000" stroke-opacity=".02" points="18.7 0 37.967 0 56.667 18.7 56.667 37.967 37.967 56.667 18.7 56.667 0 37.967 0 18.7 18.7 0" transform="translate(56.666666666666664, 283.3333333333333)"/><polyline fill="#ddd" fill-opacity=".055" stroke="#000" stroke-opacity=".02" points="18.7 0 37.967 0 56.667 18.7 56.667 37.967 37.967 56.667 18.7 56.667 0 37.967 0 18.7 18.7 0" transform="translate(113.33333333333333, 283.3333333333333)"/><polyline fill="#222" fill-opacity=".063" stroke="#000" stroke-opacity=".02" points="18.7 0 37.967 0 56.667 18.7 56.667 37.967 37.967 56.667 18.7 56.667 0 37.967 0 18.7 18.7 0" transform="translate(170.0, 283.3333333333333)"/><polyline fill="#ddd" fill-opacity=".072" stroke="#000" stroke-opacity=".02" points="18.7 0 37.967 0 56.667 18.7 56.667 37.967 37.967 56.667 18.7 56.667 0 37.967 0 18.7 18.7 0" transform="translate(226.66666666666666, 283.3333333333333)"/><polyline fill="#ddd" fill-opacity=".055" stroke="#000" stroke-opacity=".02" points="18.7 0 37.967 0 56.667 18.7 56.667 37.967 37.967 56.667 18.7 56.667 0 37.967 0 18.7 18.7 0" transform="translate(283.3333333333333, 283.3333333333333)"/></svg>