<svg xmlns="http://www.w3.org/2000/svg" width="565" height="565"><rect width="100%" height="100%" x="0" y="0" fill="#3F904D"/><circle cx="0" cy="0" r="94.167" fill="#ddd" style="opacity:.14133333333333334"/><circle cx="565" cy="0" r="94.167" fill="#ddd" style="opacity:.14133333333333334"/><circle cx="0" cy="565" r="94.167" fill="#ddd" style="opacity:.14133333333333334"/><circle cx="565" cy="565" r="94.167" fill="#ddd" style="opacity:.14133333333333334"/><circle cx="94.167" cy="0" r="94.167" fill="#ddd" style="opacity:.08933333333333333"/><circle cx="94.167" cy="565" r="94.167" fill="#ddd" style="opacity:.08933333333333333"/><circle cx="188.333" cy="0" r="94.167" fill="#222" style="opacity:.13266666666666665"/><circle cx="188.333" cy="565" r="94.167" fill="#222" style="opacity:.13266666666666665"/><circle cx="282.5" cy="0" r="94.167" fill="#222" style="opacity:.15"/><circle cx="282.5" cy="565" r="94.167" fill="#222" style="opacity:.15"/><circle cx="376.667" cy="0" r="94.167" fill="#222" style="opacity:.098"/><circle cx="376.667" cy="565" r="94.167" fill="#222" style="opacity:.098"/><circle cx="470.833" cy="0" r="94.167" fill="#ddd" style="opacity:.07200000000000001"/><circle cx="470.833" cy="565" r="94.167" fill="#ddd" style="opacity:.07200000000000001"/><circle cx="0" cy="94.167" r="94.167" fill="#ddd" style="opacity:.07200000000000001"/><circle cx="565" cy="94.167" r="94.167" fill="#ddd" style="opacity:.07200000000000001"/><circle cx="94.167" cy="94.167" r="94.167" fill="#222" style="opacity:.08066666666666666"/><circle cx="188.333" cy="94.167" r="94.167" fill="#ddd" style="opacity:.07200000000000001"/><circle cx="282.5" cy="94.167" r="94.167" fill="#222" style="opacity:.08066666666666666"/><circle cx="376.667" cy="94.167" r="94.167" fill="#222" style="opacity:.15"/><circle cx="470.833" cy="94.167" r="94.167" fill="#222" style="opacity:.11533333333333334"/><circle cx="0" cy="188.333" r="94.167" fill="#222" style="opacity:.13266666666666665"/><circle cx="565" cy="188.333" r="94.167" fill="#222" style="opacity:.13266666666666665"/><circle cx="94.167" cy="188.333" r="94.167" fill="#222" style="opacity:.046"/><circle cx="188.333" cy="188.333" r="94.167" fill="#ddd" style="opacity:.10666666666666667"/><circle cx="282.5" cy="188.333" r="94.167" fill="#222" style="opacity:.046"/><circle cx="376.667" cy="188.333" r="94.167" fill="#ddd" style="opacity:.08933333333333333"/><circle cx="470.833" cy="188.333" r="94.167" fill="#222" style="opacity:.046"/><circle cx="0" cy="282.5" r="94.167" fill="#ddd" style="opacity:.12400000000000001"/><circle cx="565" cy="282.5" r="94.167" fill="#ddd" style="opacity:.12400000000000001"/><circle cx="94.167" cy="282.5" r="94.167" fill="#222" style="opacity:.06333333333333334"/><circle cx="188.333" cy="282.5" r="94.167" fill="#222" style="opacity:.046"/><circle cx="282.5" cy="282.5" r="94.167" fill="#ddd" style="opacity:.03733333333333333"/><circle cx="376.667" cy="282.5" r="94.167" fill="#222" style="opacity:.028666666666666667"/><circle cx="470.833" cy="282.5" r="94.167" fill="#ddd" style="opacity:.07200000000000001"/><circle cx="0" cy="376.667" r="94.167" fill="#222" style="opacity:.08066666666666666"/><circle cx="565" cy="376.667" r="94.167" fill="#222" style="opacity:.08066666666666666"/><circle cx="94.167" cy="376.667" r="94.167" fill="#222" style="opacity:.098"/><circle cx="188.333" cy="376.667" r="94.167" fill="#222" style="opacity:.098"/><circle cx="282.5" cy="376.667" r="94.167" fill="#222" style="opacity:.11533333333333334"/><circle cx="376.667" cy="376.667" r="94.167" fill="#ddd" style="opacity:.14133333333333334"/><circle cx="470.833" cy="376.667" r="94.167" fill="#222" style="opacity:.11533333333333334"/><circle cx="0" cy="470.833" r="94.167" fill="#ddd" style="opacity:.05466666666666667"/><circle cx="565" cy="470.833" r="94.167" fill="#ddd" style="opacity:.05466666666666667"/><circle cx="94.167" cy="470.833" r="94.167" fill="#222" style="opacity:.11533333333333334"/><circle cx="188.333" cy="470.833" r="94.167" fill="#ddd" style="opacity:.05466666666666667"/><circle cx="282.5" cy="470.833" r="94.167" fill="#222" style="opacity:.06333333333333334"/><circle cx="376.667" cy="470.833" r="94.167" fill="#ddd" style="opacity:.07200000000000001"/><circle cx="470.833" cy="470.833" r="94.167" fill="#ddd" style="opacity:.05466666666666667"/></svg>