<svg xmlns="http://www.w3.org/2000/svg" width="461" height="461"><rect width="100%" height="100%" x="0" y="0" fill="#3F904D"/><rect width="100%" height="13" x="0" y="19" fill="#ddd" opacity=".089"/><rect width="100%" height="20" x="0" y="50" fill="#222" opacity=".15"/><rect width="100%" height="11" x="0" y="84" fill="#ddd" opacity=".072"/><rect width="100%" height="12" x="0" y="106" fill="#222" opacity=".081"/><rect width="100%" height="12" x="0" y="129" fill="#222" opacity=".081"/><rect width="100%" height="16" x="0" y="161" fill="#222" opacity=".115"/><rect width="100%" height="8" x="0" y="195" fill="#222" opacity=".046"/><rect width="100%" height="8" x="0" y="218" fill="#222" opacity=".046"/><rect width="100%" height="8" x="0" y="239" fill="#222" opacity=".046"/><rect width="100%" height="10" x="0" y="264" fill="#222" opacity=".063"/><rect width="100%" height="7" x="0" y="282" fill="#ddd" opacity=".037"/><rect width="100%" height="11" x="0" y="295" fill="#ddd" opacity=".072"/><rect width="100%" height="14" x="0" y="318" fill="#222" opacity=".098"/><rect width="100%" height="16" x="0" y="346" fill="#222" opacity=".115"/><rect width="100%" height="16" x="0" y="381" fill="#222" opacity=".115"/><rect width="100%" height="16" x="0" y="406" fill="#222" opacity=".115"/><rect width="100%" height="10" x="0" y="431" fill="#222" opacity=".063"/><rect width="100%" height="9" x="0" y="452" fill="#ddd" opacity=".055"/><rect width="13" height="100%" x="19" y="0" fill="#ddd" opacity=".089"/><rect width="20" height="100%" x="50" y="0" fill="#222" opacity=".15"/><rect width="11" height="100%" x="84" y="0" fill="#ddd" opacity=".072"/><rect width="12" height="100%" x="106" y="0" fill="#222" opacity=".081"/><rect width="12" height="100%" x="129" y="0" fill="#222" opacity=".081"/><rect width="16" height="100%" x="161" y="0" fill="#222" opacity=".115"/><rect width="8" height="100%" x="195" y="0" fill="#222" opacity=".046"/><rect width="8" height="100%" x="218" y="0" fill="#222" opacity=".046"/><rect width="8" height="100%" x="239" y="0" fill="#222" opacity=".046"/><rect width="10" height="100%" x="264" y="0" fill="#222" opacity=".063"/><rect width="7" height="100%" x="282" y="0" fill="#ddd" opacity=".037"/><rect width="11" height="100%" x="295" y="0" fill="#ddd" opacity=".072"/><rect width="14" height="100%" x="318" y="0" fill="#222" opacity=".098"/><rect width="16" height="100%" x="346" y="0" fill="#222" opacity=".115"/><rect width="16" height="100%" x="381" y="0" fill="#222" opacity=".115"/><rect width="16" height="100%" x="406" y="0" fill="#222" opacity=".115"/><rect width="10" height="100%" x="431" y="0" fill="#222" opacity=".063"/><rect width="9" height="100%" x="452" y="0" fill="#ddd" opacity=".055"/></svg>