<svg xmlns="http://www.w3.org/2000/svg" width="178" height="205"><rect width="100%" height="100%" x="0" y="0" fill="#3F904D"/><rect width="37.667" height="37.667" x="-18.833" y="-18.833" fill="#ddd" fill-opacity=".141" stroke="#000" stroke-opacity=".02" stroke-width="1"/><rect width="37.667" height="37.667" x="159.407" y="-18.833" fill="#ddd" fill-opacity=".141" stroke="#000" stroke-opacity=".02" stroke-width="1"/><rect width="37.667" height="37.667" x="-18.833" y="186.981" fill="#ddd" fill-opacity=".141" stroke="#000" stroke-opacity=".02" stroke-width="1"/><rect width="37.667" height="37.667" x="159.407" y="186.981" fill="#ddd" fill-opacity=".141" stroke="#000" stroke-opacity=".02" stroke-width="1"/><rect width="37.667" height="37.667" x="70.287" y="32.62" fill="#ddd" fill-opacity=".089" stroke="#000" stroke-opacity=".02" stroke-width="1"/><rect width="37.667" height="37.667" x="-18.833" y="84.074" fill="#222" fill-opacity=".133" stroke="#000" stroke-opacity=".02" stroke-width="1"/><rect width="37.667" height="37.667" x="159.407" y="84.074" fill="#222" fill-opacity=".133" stroke="#000" stroke-opacity=".02" stroke-width="1"/><rect width="37.667" height="37.667" x="70.287" y="135.528" fill="#222" fill-opacity=".15" stroke="#000" stroke-opacity=".02" stroke-width="1"/><polyline fill="#222" fill-opacity=".098" stroke="#000" stroke-opacity=".02" stroke-width="1" points="0 0 32.62 18.833 0 37.667 0 0" transform="translate(18.833333333333332, -18.833333333333332) rotate(0, 18.833333333333332, 16.310145104606924)"/><polyline fill="#222" fill-opacity=".098" stroke="#000" stroke-opacity=".02" stroke-width="1" points="0 0 32.62 18.833 0 37.667 0 0" transform="translate(18.833333333333332, 224.64782750352205) rotate(0, 18.833333333333332, 16.310145104606924) scale(1, -1)"/><polyline fill="#ddd" fill-opacity=".072" stroke="#000" stroke-opacity=".02" stroke-width="1" points="0 0 32.62 18.833 0 37.667 0 0" transform="translate(159.40724708509435, -18.833333333333332) rotate(0, 18.833333333333332, 16.310145104606924) scale(-1, 1)"/><polyline fill="#ddd" fill-opacity=".072" stroke="#000" stroke-opacity=".02" stroke-width="1" points="0 0 32.62 18.833 0 37.667 0 0" transform="translate(159.40724708509435, 224.64782750352205) rotate(0, 18.833333333333332, 16.310145104606924) scale(-1, -1)"/><polyline fill="#ddd" fill-opacity=".072" stroke="#000" stroke-opacity=".02" stroke-width="1" points="0 0 32.62 18.833 0 37.667 0 0" transform="translate(107.95362354254718, 32.62029020921385)"/><polyline fill="#222" fill-opacity=".081" stroke="#000" stroke-opacity=".02" stroke-width="1" points="0 0 32.62 18.833 0 37.667 0 0" transform="translate(70.28695687588052, 32.62029020921385) scale(-1, 1)"/><polyline fill="#ddd" fill-opacity=".072" stroke="#000" stroke-opacity=".02" stroke-width="1" points="0 0 32.62 18.833 0 37.667 0 0" transform="translate(107.95362354254718, 173.19420396097485) scale(1, -1)"/><polyline fill="#222" fill-opacity=".081" stroke="#000" stroke-opacity=".02" stroke-width="1" points="0 0 32.62 18.833 0 37.667 0 0" transform="translate(70.28695687588052, 173.19420396097485) scale(-1, -1)"/><polyline fill="#222" fill-opacity=".15" stroke="#000" stroke-opacity=".02" stroke-width="1" points="0 0 32.62 18.833 0 37.667 0 0" transform="translate(18.833333333333332, 84.07391375176103)"/><polyline fill="#222" fill-opacity=".115" stroke="#000" stroke-opacity=".02" stroke-width="1" points="0 0 32.62 18.833 0 37.667 0 0" transform="translate(159.40724708509435, 84.07391375176103) scale(-1, 1)"/><rect width="37.667" height="37.667" x="0" y="0" fill="#222" fill-opacity=".133" stroke="#000" stroke-opacity=".02" stroke-width="1" transform="translate(18.833333333333332, 18.833333333333332) rotate(-30, 0, 0)"/><rect width="37.667" height="37.667" x="0" y="0" fill="#222" fill-opacity=".046" stroke="#000" stroke-opacity=".02" stroke-width="1" transform="scale(-1, 1) translate(-159.40724708509435, 18.833333333333332) rotate(-30, 0, 0)"/><rect width="37.667" height="37.667" x="0" y="0" fill="#ddd" fill-opacity=".107" stroke="#000" stroke-opacity=".02" stroke-width="1" transform="translate(18.833333333333332, 46.40724708509436) rotate(30, 0, 37.666666666666664)"/><rect width="37.667" height="37.667" x="0" y="0" fill="#222" fill-opacity=".046" stroke="#000" stroke-opacity=".02" stroke-width="1" transform="scale(-1, 1) translate(-159.40724708509435, 46.40724708509436) rotate(30, 0, 37.666666666666664)"/><rect width="37.667" height="37.667" x="0" y="0" fill="#ddd" fill-opacity=".089" stroke="#000" stroke-opacity=".02" stroke-width="1" transform="scale(1, -1) translate(18.833333333333332, -159.40724708509435) rotate(30, 0, 37.666666666666664)"/><rect width="37.667" height="37.667" x="0" y="0" fill="#222" fill-opacity=".046" stroke="#000" stroke-opacity=".02" stroke-width="1" transform="scale(-1, -1) translate(-159.40724708509435, -159.40724708509435) rotate(30, 0, 37.666666666666664)"/><rect width="37.667" height="37.667" x="0" y="0" fill="#ddd" fill-opacity=".124" stroke="#000" stroke-opacity=".02" stroke-width="1" transform="scale(1, -1) translate(18.833333333333332, -186.98116083685537) rotate(-30, 0, 0)"/><rect width="37.667" height="37.667" x="0" y="0" fill="#222" fill-opacity=".063" stroke="#000" stroke-opacity=".02" stroke-width="1" transform="scale(-1, -1) translate(-159.40724708509435, -186.98116083685537) rotate(-30, 0, 0)"/></svg>