<svg xmlns="http://www.w3.org/2000/svg" width="226" height="393"><rect width="100%" height="100%" x="0" y="0" fill="#3F904D"/><polyline fill="#ddd" fill-opacity=".141" stroke="#000" stroke-opacity=".02" points="37.833 0 75.667 65.529 0 65.529 37.833 0" transform="translate(-37.83333333333333, 0.0) rotate(180, 37.83333333333333, 32.764627776511254)"/><polyline fill="#ddd" fill-opacity=".141" stroke="#000" stroke-opacity=".02" points="37.833 0 75.667 65.529 0 65.529 37.833 0" transform="translate(189.16666666666663, 0.0) rotate(180, 37.83333333333333, 32.764627776511254)"/><polyline fill="#ddd" fill-opacity=".089" stroke="#000" stroke-opacity=".02" points="37.833 0 75.667 65.529 0 65.529 37.833 0" transform="translate(0.0, 0.0) rotate(0, 37.83333333333333, 32.764627776511254)"/><polyline fill="#222" fill-opacity=".133" stroke="#000" stroke-opacity=".02" points="37.833 0 75.667 65.529 0 65.529 37.833 0" transform="translate(37.83333333333333, 0.0) rotate(180, 37.83333333333333, 32.764627776511254)"/><polyline fill="#222" fill-opacity=".15" stroke="#000" stroke-opacity=".02" points="37.833 0 75.667 65.529 0 65.529 37.833 0" transform="translate(75.66666666666666, 0.0) rotate(0, 37.83333333333333, 32.764627776511254)"/><polyline fill="#222" fill-opacity=".098" stroke="#000" stroke-opacity=".02" points="37.833 0 75.667 65.529 0 65.529 37.833 0" transform="translate(113.49999999999999, 0.0) rotate(180, 37.83333333333333, 32.764627776511254)"/><polyline fill="#ddd" fill-opacity=".072" stroke="#000" stroke-opacity=".02" points="37.833 0 75.667 65.529 0 65.529 37.833 0" transform="translate(151.33333333333331, 0.0) rotate(0, 37.83333333333333, 32.764627776511254)"/><polyline fill="#ddd" fill-opacity=".072" stroke="#000" stroke-opacity=".02" points="37.833 0 75.667 65.529 0 65.529 37.833 0" transform="translate(-37.83333333333333, 65.52925555302251) rotate(0, 37.83333333333333, 32.764627776511254)"/><polyline fill="#ddd" fill-opacity=".072" stroke="#000" stroke-opacity=".02" points="37.833 0 75.667 65.529 0 65.529 37.833 0" transform="translate(189.16666666666663, 65.52925555302251) rotate(0, 37.83333333333333, 32.764627776511254)"/><polyline fill="#222" fill-opacity=".081" stroke="#000" stroke-opacity=".02" points="37.833 0 75.667 65.529 0 65.529 37.833 0" transform="translate(0.0, 65.52925555302251) rotate(180, 37.83333333333333, 32.764627776511254)"/><polyline fill="#ddd" fill-opacity=".072" stroke="#000" stroke-opacity=".02" points="37.833 0 75.667 65.529 0 65.529 37.833 0" transform="translate(37.83333333333333, 65.52925555302251) rotate(0, 37.83333333333333, 32.764627776511254)"/><polyline fill="#222" fill-opacity=".081" stroke="#000" stroke-opacity=".02" points="37.833 0 75.667 65.529 0 65.529 37.833 0" transform="translate(75.66666666666666, 65.52925555302251) rotate(180, 37.83333333333333, 32.764627776511254)"/><polyline fill="#222" fill-opacity=".15" stroke="#000" stroke-opacity=".02" points="37.833 0 75.667 65.529 0 65.529 37.833 0" transform="translate(113.49999999999999, 65.52925555302251) rotate(0, 37.83333333333333, 32.764627776511254)"/><polyline fill="#222" fill-opacity=".115" stroke="#000" stroke-opacity=".02" points="37.833 0 75.667 65.529 0 65.529 37.833 0" transform="translate(151.33333333333331, 65.52925555302251) rotate(180, 37.83333333333333, 32.764627776511254)"/><polyline fill="#222" fill-opacity=".133" stroke="#000" stroke-opacity=".02" points="37.833 0 75.667 65.529 0 65.529 37.833 0" transform="translate(-37.83333333333333, 131.05851110604502) rotate(180, 37.83333333333333, 32.764627776511254)"/><polyline fill="#222" fill-opacity=".133" stroke="#000" stroke-opacity=".02" points="37.833 0 75.667 65.529 0 65.529 37.833 0" transform="translate(189.16666666666663, 131.05851110604502) rotate(180, 37.83333333333333, 32.764627776511254)"/><polyline fill="#222" fill-opacity=".046" stroke="#000" stroke-opacity=".02" points="37.833 0 75.667 65.529 0 65.529 37.833 0" transform="translate(0.0, 131.05851110604502) rotate(0, 37.83333333333333, 32.764627776511254)"/><polyline fill="#ddd" fill-opacity=".107" stroke="#000" stroke-opacity=".02" points="37.833 0 75.667 65.529 0 65.529 37.833 0" transform="translate(37.83333333333333, 131.05851110604502) rotate(180, 37.83333333333333, 32.764627776511254)"/><polyline fill="#222" fill-opacity=".046" stroke="#000" stroke-opacity=".02" points="37.833 0 75.667 65.529 0 65.529 37.833 0" transform="translate(75.66666666666666, 131.05851110604502) rotate(0, 37.83333333333333, 32.764627776511254)"/><polyline fill="#ddd" fill-opacity=".089" stroke="#000" stroke-opacity=".02" points="37.833 0 75.667 65.529 0 65.529 37.833 0" transform="translate(113.49999999999999, 131.05851110604502) rotate(180, 37.83333333333333, 32.764627776511254)"/><polyline fill="#222" fill-opacity=".046" stroke="#000" stroke-opacity=".02" points="37.833 0 75.667 65.529 0 65.529 37.833 0" transform="translate(151.33333333333331, 131.05851110604502) rotate(0, 37.83333333333333, 32.764627776511254)"/><polyline fill="#ddd" fill-opacity=".124" stroke="#000" stroke-opacity=".02" points="37.833 0 75.667 65.529 0 65.529 37.833 0" transform="translate(-37.83333333333333, 196.58776665906754) rotate(0, 37.83333333333333, 32.764627776511254)"/><polyline fill="#ddd" fill-opacity=".124" stroke="#000" stroke-opacity=".02" points="37.833 0 75.667 65.529 0 65.529 37.833 0" transform="translate(189.16666666666663, 196.58776665906754) rotate(0, 37.83333333333333, 32.764627776511254)"/><polyline fill="#222" fill-opacity=".063" stroke="#000" stroke-opacity=".02" points="37.833 0 75.667 65.529 0 65.529 37.833 0" transform="translate(0.0, 196.58776665906754) rotate(180, 37.83333333333333, 32.764627776511254)"/><polyline fill="#222" fill-opacity=".046" stroke="#000" stroke-opacity=".02" points="37.833 0 75.667 65.529 0 65.529 37.833 0" transform="translate(37.83333333333333, 196.58776665906754) rotate(0, 37.83333333333333, 32.764627776511254)"/><polyline fill="#ddd" fill-opacity=".037" stroke="#000" stroke-opacity=".02" points="37.833 0 75.667 65.529 0 65.529 37.833 0" transform="translate(75.66666666666666, 196.58776665906754) rotate(180, 37.83333333333333, 32.764627776511254)"/><polyline fill="#222" fill-opacity=".029" stroke="#000" stroke-opacity=".02" points="37.833 0 75.667 65.529 0 65.529 37.833 0" transform="translate(113.49999999999999, 196.58776665906754) rotate(0, 37.83333333333333, 32.764627776511254)"/><polyline fill="#ddd" fill-opacity=".072" stroke="#000" stroke-opacity=".02" points="37.833 0 75.667 65.529 0 65.529 37.833 0" transform="translate(151.33333333333331, 196.58776665906754) rotate(180, 37.83333333333333, 32.764627776511254)"/><polyline fill="#222" fill-opacity=".081" stroke="#000" stroke-opacity=".02" points="37.833 0 75.667 65.529 0 65.529 37.833 0" transform="translate(-37.83333333333333, 262.11702221209003) rotate(180, 37.83333333333333, 32.764627776511254)"/><polyline fill="#222" fill-opacity=".081" stroke="#000" stroke-opacity=".02" points="37.833 0 75.667 65.529 0 65.529 37.833 0" transform="translate(189.16666666666663, 262.11702221209003) rotate(180, 37.83333333333333, 32.764627776511254)"/><polyline fill="#222" fill-opacity=".098" stroke="#000" stroke-opacity=".02" points="37.833 0 75.667 65.529 0 65.529 37.833 0" transform="translate(0.0, 262.11702221209003) rotate(0, 37.83333333333333, 32.764627776511254)"/><polyline fill="#222" fill-opacity=".098" stroke="#000" stroke-opacity=".02" points="37.833 0 75.667 65.529 0 65.529 37.833 0" transform="translate(37.83333333333333, 262.11702221209003) rotate(180, 37.83333333333333, 32.764627776511254)"/><polyline fill="#222" fill-opacity=".115" stroke="#000" stroke-opacity=".02" points="37.833 0 75.667 65.529 0 65.529 37.833 0" transform="translate(75.66666666666666, 262.11702221209003) rotate(0, 37.83333333333333, 32.764627776511254)"/><polyline fill="#ddd" fill-opacity=".141" stroke="#000" stroke-opacity=".02" points="37.833 0 75.667 65.529 0 65.529 37.833 0" transform="translate(113.49999999999999, 262.11702221209003) rotate(180, 37.83333333333333, 32.764627776511254)"/><polyline fill="#222" fill-opacity=".115" stroke="#000" stroke-opacity=".02" points="37.833 0 75.667 65.529 0 65.529 37.833 0" transform="translate(151.33333333333331, 262.11702221209003) rotate(0, 37.83333333333333, 32.764627776511254)"/><polyline fill="#ddd" fill-opacity=".055" stroke="#000" stroke-opacity=".02" points="37.833 0 75.667 65.529 0 65.529 37.833 0" transform="translate(-37.83333333333333, 327.64627776511253) rotate(0, 37.83333333333333, 32.764627776511254)"/><polyline fill="#ddd" fill-opacity=".055" stroke="#000" stroke-opacity=".02" points="37.833 0 75.667 65.529 0 65.529 37.833 0" transform="translate(189.16666666666663, 327.64627776511253) rotate(0, 37.83333333333333, 32.764627776511254)"/><polyline fill="#222" fill-opacity=".115" stroke="#000" stroke-opacity=".02" points="37.833 0 75.667 65.529 0 65.529 37.833 0" transform="translate(0.0, 327.64627776511253) rotate(180, 37.83333333333333, 32.764627776511254)"/><polyline fill="#ddd" fill-opacity=".055" stroke="#000" stroke-opacity=".02" points="37.833 0 75.667 65.529 0 65.529 37.833 0" transform="translate(37.83333333333333, 327.64627776511253) rotate(0, 37.83333333333333, 32.764627776511254)"/><polyline fill="#222" fill-opacity=".063" stroke="#000" stroke-opacity=".02" points="37.833 0 75.667 65.529 0 65.529 37.833 0" transform="translate(75.66666666666666, 327.64627776511253) rotate(180, 37.83333333333333, 32.764627776511254)"/><polyline fill="#ddd" fill-opacity=".072" stroke="#000" stroke-opacity=".02" points="37.833 0 75.667 65.529 0 65.529 37.833 0" transform="translate(113.49999999999999, 327.64627776511253) rotate(0, 37.83333333333333, 32.764627776511254)"/><polyline fill="#ddd" fill-opacity=".055" stroke="#000" stroke-opacity=".02" points="37.833 0 75.667 65.529 0 65.529 37.833 0" transform="translate(151.33333333333331, 327.64627776511253) rotate(180, 37.83333333333333, 32.764627776511254)"/></svg>